<svg xmlns="http://www.w3.org/2000/svg" width="119" height="43" viewBox="0 0 119 43">
  <g id="Logo_4" data-name="Logo 4" transform="translate(-10927.292 -8152.807)">
    <g id="Group_13" data-name="Group 13">
      <g id="Group_11" data-name="Group 11">
        <path id="Path_27" data-name="Path 27" d="M10945.246,8164.09a1.856,1.856,0,0,0-1,.245.818.818,0,0,0-.393.744.861.861,0,0,0,.393.761,6,6,0,0,0,1.669.568,4.605,4.605,0,0,1,1.925.855,2,2,0,0,1,.647,1.62,2.134,2.134,0,0,1-.819,1.739,3.3,3.3,0,0,1-2.15.667,5.09,5.09,0,0,1-3.457-1.323l.878-1.041a3.992,3.992,0,0,0,2.614,1.076,1.8,1.8,0,0,0,1.075-.286.9.9,0,0,0,.4-.76.855.855,0,0,0-.375-.739,3.985,3.985,0,0,0-1.289-.479,11.562,11.562,0,0,1-1.39-.4,3.171,3.171,0,0,1-.845-.474,1.964,1.964,0,0,1-.735-1.685,2.041,2.041,0,0,1,.837-1.75,3.406,3.406,0,0,1,2.073-.615,5.053,5.053,0,0,1,1.58.257,4.163,4.163,0,0,1,1.355.727l-.749,1.043a2.847,2.847,0,0,0-1-.539A3.867,3.867,0,0,0,10945.246,8164.09Z" fill="#a8b9c0"/>
        <path id="Path_28" data-name="Path 28" d="M10951.407,8163.012h1.4v8.183h-1.4Z" fill="#a8b9c0"/>
        <path id="Path_29" data-name="Path 29" d="M10957.705,8171.195h-1.4v-8.183h2.187l2.508,5.14,2.507-5.14h2.175v8.183h-1.4V8164.8l-2.9,5.679h-.784l-2.887-5.679Z" fill="#a8b9c0"/>
        <path id="Path_30" data-name="Path 30" d="M10974.78,8163.726a2.687,2.687,0,0,1,.867,2.2,2.591,2.591,0,0,1-.885,2.178,4.386,4.386,0,0,1-2.715.69h-1.474v2.4h-1.4v-8.183h2.852A4.319,4.319,0,0,1,10974.78,8163.726Zm-.992,3.378a1.79,1.79,0,0,0,.422-1.289,1.325,1.325,0,0,0-.534-1.2,3.1,3.1,0,0,0-1.676-.353h-1.426v3.278h1.627A2.191,2.191,0,0,0,10973.788,8167.1Z" fill="#a8b9c0"/>
        <path id="Path_31" data-name="Path 31" d="M10978.487,8171.195v-8.183h1.4v6.871h3.79v1.312Z" fill="#a8b9c0"/>
        <path id="Path_32" data-name="Path 32" d="M10992.235,8163.012v1.3h-4.432v2.165h3.981v1.231h-3.981v2.188h4.574v1.3h-5.977v-8.183Z" fill="#a8b9c0"/>
      </g>
      <g id="Group_12" data-name="Group 12">
        <path id="Path_33" data-name="Path 33" d="M10961.645,8178.139a1.857,1.857,0,0,0-1,.245.82.82,0,0,0-.392.744.864.864,0,0,0,.392.761,6.044,6.044,0,0,0,1.67.567,4.622,4.622,0,0,1,1.926.855,2.01,2.01,0,0,1,.647,1.62,2.136,2.136,0,0,1-.821,1.739,3.3,3.3,0,0,1-2.15.667,5.1,5.1,0,0,1-3.458-1.323l.88-1.041a3.992,3.992,0,0,0,2.614,1.076,1.8,1.8,0,0,0,1.075-.286.894.894,0,0,0,.4-.761.853.853,0,0,0-.373-.738,3.992,3.992,0,0,0-1.29-.479,11.638,11.638,0,0,1-1.39-.4,3.069,3.069,0,0,1-.844-.474,1.963,1.963,0,0,1-.738-1.685,2.041,2.041,0,0,1,.839-1.75,3.409,3.409,0,0,1,2.074-.615,5.081,5.081,0,0,1,1.58.257,4.158,4.158,0,0,1,1.354.727l-.748,1.043a2.835,2.835,0,0,0-1-.539A3.85,3.85,0,0,0,10961.645,8178.139Z" fill="#a8b9c0"/>
        <path id="Path_34" data-name="Path 34" d="M10970.942,8178.325v6.919h-1.4v-6.919h-2.52v-1.264h6.439v1.264Z" fill="#a8b9c0"/>
        <path id="Path_35" data-name="Path 35" d="M10976.693,8183.382l-.831,1.862h-1.5l3.66-8.183h1.5l3.659,8.183h-1.5l-.832-1.862Zm3.589-1.275-1.51-3.372-1.51,3.372Z" fill="#a8b9c0"/>
        <path id="Path_36" data-name="Path 36" d="M10992.153,8179.718a2.377,2.377,0,0,1-1.795,2.552l2.175,2.974h-1.782l-1.985-2.75h-1.842v2.75h-1.4v-8.183h3.089a4.521,4.521,0,0,1,2.721.633A2.4,2.4,0,0,1,10992.153,8179.718Zm-1.866,1.16a1.452,1.452,0,0,0,.428-1.166,1.238,1.238,0,0,0-.439-1.1,2.955,2.955,0,0,0-1.568-.3h-1.783v2.928h1.748A2.6,2.6,0,0,0,10990.287,8180.878Z" fill="#a8b9c0"/>
      </g>
      <path id="Path_37" data-name="Path 37" d="M10927.292,8152.807v43h119v-43Zm74.86,41.924h-73.758v-40.849h73.758Zm26.041-14.411-4.056-2.045-4.031,2.093.746-4.392-3.289-3.086,4.516-.666,2-4,2.046,3.978,4.524.613-3.254,3.125Z" fill="#a8b9c0"/>
    </g>
  </g>
</svg>
