<svg xmlns="http://www.w3.org/2000/svg" width="64" height="62.001" viewBox="0 0 64 62.001">
  <g id="Logo_1" data-name="Logo 1" transform="translate(-10386.876 -8232.994)">
    <g id="Group_23" data-name="Group 23">
      <path id="Path_56" data-name="Path 56" d="M10392.986,8232.994v40.194h2.213v-38.021h47.62l0,38.021h2.214v-40.194Zm0,62h52.049v-2.176h-52.049Z" fill="#a8b9c0"/>
      <g id="Group_21" data-name="Group 21">
        <path id="Path_57" data-name="Path 57" d="M10387.921,8285.932h-1.045v-6.083h1.629l1.871,3.819,1.868-3.819h1.621v6.083h-1.045v-4.752l-2.162,4.221h-.585l-2.152-4.221Z" fill="#a8b9c0"/>
        <path id="Path_58" data-name="Path 58" d="M10402.539,8285.091a3.44,3.44,0,0,1-4.643,0,3.151,3.151,0,0,1,0-4.489,3.437,3.437,0,0,1,4.643,0,3.151,3.151,0,0,1,0,4.489Zm-.767-3.807a2.2,2.2,0,0,0-3.109,0,2.241,2.241,0,0,0,0,3.123,2.2,2.2,0,0,0,3.109,0,2.243,2.243,0,0,0,0-3.123Z" fill="#a8b9c0"/>
        <path id="Path_59" data-name="Path 59" d="M10411.213,8279.849h1.046v6.083h-1.135l-3.508-4.437v4.438h-1.046v-6.083h1.046l3.6,4.541Z" fill="#a8b9c0"/>
        <path id="Path_60" data-name="Path 60" d="M10418.088,8280.788v5.144h-1.046v-5.144h-1.878v-.939h4.8v.939Z" fill="#a8b9c0"/>
        <path id="Path_61" data-name="Path 61" d="M10427.814,8281.823a1.77,1.77,0,0,1-1.337,1.9l1.622,2.211h-1.329l-1.479-2.046h-1.374v2.046h-1.046v-6.083h2.3a3.383,3.383,0,0,1,2.03.47A1.78,1.78,0,0,1,10427.814,8281.823Zm-1.39.861a1.073,1.073,0,0,0,.317-.865.92.92,0,0,0-.326-.818,2.227,2.227,0,0,0-1.171-.221h-1.328v2.174h1.3A1.94,1.94,0,0,0,10426.425,8282.685Z" fill="#a8b9c0"/>
        <path id="Path_62" data-name="Path 62" d="M10435.442,8279.849v.966h-3.3v1.61h2.968v.914h-2.968v1.625h3.41v.968h-4.455v-6.083Z" fill="#a8b9c0"/>
        <path id="Path_63" data-name="Path 63" d="M10439.537,8284.547l-.62,1.385h-1.117l2.729-6.083h1.116l2.729,6.083h-1.116l-.62-1.385Zm2.675-.948-1.125-2.507-1.125,2.507Z" fill="#a8b9c0"/>
        <path id="Path_64" data-name="Path 64" d="M10447,8285.932v-6.083h1.046v5.107h2.825v.976Z" fill="#a8b9c0"/>
      </g>
      <g id="Group_22" data-name="Group 22">
        <path id="Path_65" data-name="Path 65" d="M10411.09,8267.517h-3.264v-18.992h5.09l5.837,11.927,5.837-11.927h5.062v18.992h-3.265v-14.835l-6.749,13.178h-1.825l-6.723-13.178Z" fill="#a8b9c0"/>
      </g>
    </g>
  </g>
</svg>
