<svg xmlns="http://www.w3.org/2000/svg" width="117.999" height="43" viewBox="0 0 117.999 43">
  <g id="logo_3" data-name="logo 3" transform="translate(-10686.297 -8122.41)">
    <g id="Group_17" data-name="Group 17">
      <g id="Group_14" data-name="Group 14">
        <path id="Path_38" data-name="Path 38" d="M10687.832,8160.909c-.844.466-1.535.071-1.535-.875v-29.239c0-.946.689-1.337,1.534-.87l26.564,14.689c.843.466.843,1.227,0,1.693Z" fill="#a8b9c0"/>
      </g>
      <rect id="Rectangle_1" data-name="Rectangle 1" width="1.099" height="43" transform="translate(10728.635 8122.41)" fill="#a8b9c0"/>
      <g id="Group_15" data-name="Group 15">
        <path id="Path_39" data-name="Path 39" d="M10750.321,8137.6h1.458v2.876a4.541,4.541,0,0,1-3.494,1.313,4.469,4.469,0,0,1-3.2-1.227,4.386,4.386,0,0,1,.025-6.238,4.449,4.449,0,0,1,3.179-1.251,4.589,4.589,0,0,1,3.1,1.061l-.778,1.083a3.055,3.055,0,0,0-1.019-.585,3.93,3.93,0,0,0-1.191-.162,3.115,3.115,0,0,0-2.2.824,3.105,3.105,0,0,0-.023,4.323,2.936,2.936,0,0,0,2.092.812,3.793,3.793,0,0,0,2.055-.518Z" fill="#a8b9c0"/>
        <path id="Path_40" data-name="Path 40" d="M10761.816,8136.01a2.451,2.451,0,0,1-1.865,2.626l2.26,3.058h-1.852l-2.062-2.831h-1.913v2.831h-1.457v-8.417h3.211a4.761,4.761,0,0,1,2.826.65A2.456,2.456,0,0,1,10761.816,8136.01Zm-1.939,1.192a1.478,1.478,0,0,0,.444-1.2,1.268,1.268,0,0,0-.456-1.131,3.106,3.106,0,0,0-1.63-.308h-1.852v3.01h1.814A2.723,2.723,0,0,0,10759.877,8137.2Z" fill="#a8b9c0"/>
        <path id="Path_41" data-name="Path 41" d="M10772.371,8140.531a4.822,4.822,0,0,1-6.47,0,4.341,4.341,0,0,1,0-6.213,4.822,4.822,0,0,1,6.47,0,4.341,4.341,0,0,1,0,6.213Zm-1.068-5.267a3.085,3.085,0,1,0,.883,2.162A2.93,2.93,0,0,0,10771.3,8135.264Z" fill="#a8b9c0"/>
        <path id="Path_42" data-name="Path 42" d="M10783.976,8140.531a4.821,4.821,0,0,1-6.469,0,4.341,4.341,0,0,1,0-6.213,4.821,4.821,0,0,1,6.469,0,4.339,4.339,0,0,1,0,6.213Zm-1.067-5.267a3.083,3.083,0,1,0,.884,2.162A2.931,2.931,0,0,0,10782.908,8135.264Z" fill="#a8b9c0"/>
        <path id="Path_43" data-name="Path 43" d="M10792.15,8141.693h-1.631l-3.469-8.417h1.63l2.654,6.286,2.653-6.286h1.63Z" fill="#a8b9c0"/>
        <path id="Path_44" data-name="Path 44" d="M10804.149,8133.276v1.338h-4.605v2.227h4.135v1.263h-4.135v2.251h4.752v1.338h-6.209v-8.417Z" fill="#a8b9c0"/>
      </g>
      <g id="Group_16" data-name="Group 16">
        <path id="Path_45" data-name="Path 45" d="M10745.8,8156.14h-1.458v-8.415h2.272l2.605,5.285,2.6-5.285h2.26v8.415h-1.457v-6.573l-3.014,5.839h-.813l-3-5.839Z" fill="#a8b9c0"/>
        <path id="Path_46" data-name="Path 46" d="M10759.655,8154.214a2.247,2.247,0,0,0,3.21,0,2.67,2.67,0,0,0,.592-1.829v-4.66h1.457v4.719a3.7,3.7,0,0,1-1.023,2.8,4.017,4.017,0,0,1-5.26,0,3.689,3.689,0,0,1-1.025-2.8v-4.719h1.457v4.66A2.67,2.67,0,0,0,10759.655,8154.214Z" fill="#a8b9c0"/>
        <path id="Path_47" data-name="Path 47" d="M10771.044,8148.832a1.937,1.937,0,0,0-1.043.254.836.836,0,0,0-.407.765.88.88,0,0,0,.407.782,6.206,6.206,0,0,0,1.734.584,4.823,4.823,0,0,1,2,.879,2.054,2.054,0,0,1,.673,1.667,2.194,2.194,0,0,1-.853,1.79,3.46,3.46,0,0,1-2.234.686,5.328,5.328,0,0,1-3.592-1.361l.913-1.072a4.161,4.161,0,0,0,2.717,1.108,1.889,1.889,0,0,0,1.117-.3.915.915,0,0,0,.413-.781.872.872,0,0,0-.389-.759,4.1,4.1,0,0,0-1.34-.493,12.258,12.258,0,0,1-1.443-.409,3.317,3.317,0,0,1-.877-.489,2.009,2.009,0,0,1-.767-1.733,2.094,2.094,0,0,1,.87-1.8,3.578,3.578,0,0,1,2.155-.631,5.3,5.3,0,0,1,1.642.264,4.357,4.357,0,0,1,1.408.748l-.777,1.072a2.936,2.936,0,0,0-1.038-.554A4.089,4.089,0,0,0,10771.044,8148.832Z" fill="#a8b9c0"/>
        <path id="Path_48" data-name="Path 48" d="M10777.445,8147.725h1.457v8.415h-1.457Z" fill="#a8b9c0"/>
        <path id="Path_49" data-name="Path 49" d="M10786.471,8154.852a3.109,3.109,0,0,0,1.295-.247,4.46,4.46,0,0,0,1.137-.79l.938.94a4.373,4.373,0,0,1-3.327,1.481,4.527,4.527,0,0,1-3.247-1.229,4.1,4.1,0,0,1-1.291-3.106,4.145,4.145,0,0,1,1.315-3.13,4.622,4.622,0,0,1,3.32-1.252,4.393,4.393,0,0,1,3.353,1.445l-.926.986a4.079,4.079,0,0,0-1.166-.807,3.346,3.346,0,0,0-1.292-.229,3.109,3.109,0,0,0-2.2.826,2.75,2.75,0,0,0-.889,2.106,2.975,2.975,0,0,0,2.976,3Z" fill="#a8b9c0"/>
      </g>
    </g>
  </g>
</svg>
