<svg xmlns="http://www.w3.org/2000/svg" width="105" height="40" viewBox="0 0 105 40">
  <g id="Logo_2" data-name="Logo 2" transform="translate(-10534.604 -8165.661)">
    <g id="Group_20" data-name="Group 20">
      <g id="Group_18" data-name="Group 18">
        <path id="Path_50" data-name="Path 50" d="M10556.279,8172.192a1.927,1.927,0,0,0,0-2.812,2.146,2.146,0,0,0-2.939,0,1.928,1.928,0,0,0,0,2.812A2.142,2.142,0,0,0,10556.279,8172.192Z" fill="#a8b9c0"/>
        <path id="Path_51" data-name="Path 51" d="M10550.1,8170.541a2.772,2.772,0,0,0,0-4.043,3.081,3.081,0,0,0-4.223,0,2.774,2.774,0,0,0,0,4.043A3.077,3.077,0,0,0,10550.1,8170.541Z" fill="#a8b9c0"/>
        <path id="Path_52" data-name="Path 52" d="M10567,8202.047l-8.749-14.377a8.56,8.56,0,0,1-1.021-3.608v-6.606h.927a.765.765,0,0,0,.779-.746v-.746a.766.766,0,0,0-.779-.747h-14.024a.768.768,0,0,0-.779.747v.746a.767.767,0,0,0,.779.746h.682v6.606a8.584,8.584,0,0,1-1.018,3.608l-8.751,14.377a2.733,2.733,0,0,0-.437,1.424,2.067,2.067,0,0,0,.814,1.646,2.957,2.957,0,0,0,1.794.544h27.611a2.951,2.951,0,0,0,1.793-.544,2.071,2.071,0,0,0,.815-1.646A2.744,2.744,0,0,0,10567,8202.047Zm-23.815-8.928,2.63-4.324a10.443,10.443,0,0,0,1.336-4.734v-6.606h7.742v6.606a10.517,10.517,0,0,0,1.337,4.734l2.631,4.324Z" fill="#a8b9c0"/>
      </g>
      <g id="Group_19" data-name="Group 19">
        <path id="Path_53" data-name="Path 53" d="M10584.648,8194.3v-11.994h2.115v10.072h5.717v1.922Z" fill="#a8b9c0"/>
        <path id="Path_54" data-name="Path 54" d="M10607.322,8191.576l-1.255,2.729h-2.258l5.521-11.994h2.258l5.521,11.994h-2.258l-1.255-2.729Zm5.413-1.87-2.276-4.942-2.276,4.942Z" fill="#a8b9c0"/>
        <path id="Path_55" data-name="Path 55" d="M10635.086,8194.3h-5.484v-11.994h4.876a7.247,7.247,0,0,1,2.194.293,2.971,2.971,0,0,1,2.231,2.881,2.428,2.428,0,0,1-.932,2.092,4.013,4.013,0,0,1-.466.3c-.084.039-.233.106-.448.2a3.332,3.332,0,0,1,1.855,1.006,2.72,2.72,0,0,1,.69,1.894,3.145,3.145,0,0,1-.9,2.214A4.85,4.85,0,0,1,10635.086,8194.3Zm-3.369-7.02h2.688q2.294,0,2.295-1.491a1.385,1.385,0,0,0-.556-1.235,3.107,3.107,0,0,0-1.721-.378h-2.706Zm0,5.147h3.315a3.663,3.663,0,0,0,1.783-.352,1.393,1.393,0,0,0,.618-1.33q0-1.594-2.671-1.595h-3.046Z" fill="#a8b9c0"/>
      </g>
    </g>
  </g>
</svg>
