<svg xmlns="http://www.w3.org/2000/svg" width="87" height="44" viewBox="0 0 87 44">
  <g id="Logo" transform="translate(-10275.846 -4456.668)">
    <g id="Group_37" data-name="Group 37">
      <g id="Group_34" data-name="Group 34">
        <path id="Path_261" data-name="Path 261" d="M10308.929,4462.14a3.957,3.957,0,0,1-.777,2.134,14.73,14.73,0,0,1-1.993,2.365,28.407,28.407,0,0,1-2.709,2.324q-1.493,1.132-2.945,2.034-1.206.74-2.32,1.353t-2.085,1.151q-.971.541-1.769,1.033a11.363,11.363,0,0,0-1.391.992q1.472.26,2.617.51a7.912,7.912,0,0,1,1.82.591,4.656,4.656,0,0,1,1,1.012,14.076,14.076,0,0,1,1.583,2.646,2.873,2.873,0,0,1,.257.691,4.405,4.405,0,0,1-.461,1.864,9.027,9.027,0,0,1-1.268,1.954,13.564,13.564,0,0,1-1.923,1.874,16.651,16.651,0,0,1-2.432,1.632,17.812,17.812,0,0,1-2.792,1.244,13.391,13.391,0,0,1-2.984.671q-.674-.541-1.31-1.152t-1.145-1.143q-.51-.53-.858-.921t-.43-.492a23.9,23.9,0,0,1-1.492,2.044,12.126,12.126,0,0,1-1.5,1.552,6.311,6.311,0,0,1-1.5.962,3.187,3.187,0,0,1-1.482.291,1.344,1.344,0,0,1-.634-.229,3.545,3.545,0,0,1-.632-.532,6.433,6.433,0,0,1-.584-.7c-.184-.253-.347-.5-.49-.731a4.864,4.864,0,0,1-.337-.641,1.3,1.3,0,0,1-.124-.411,14.272,14.272,0,0,1,.91-4.688,33.3,33.3,0,0,1,2.483-5.351,47.588,47.588,0,0,1,3.723-5.541,56.164,56.164,0,0,1,4.62-5.261q.819-2.885,1.33-5.611a30.534,30.534,0,0,0,.553-4.99,12.657,12.657,0,0,1,2.165,1.373,12.233,12.233,0,0,1,1.289,1.192,4.837,4.837,0,0,1,.776,1.184,3.271,3.271,0,0,1,.124,1.021c0,.08,0,.165-.01.25s-.018.177-.031.271a30.859,30.859,0,0,1,5.693-3.2,13.984,13.984,0,0,1,5.429-1.193,1.589,1.589,0,0,1,.756.242,4.721,4.721,0,0,1,.87.64c.292.267.586.566.879.892a8.655,8.655,0,0,1,.777,1,6.63,6.63,0,0,1,.542.982A2.117,2.117,0,0,1,10308.929,4462.14Zm-30.2,25.41c.121,0,.3-.151.542-.451a11.843,11.843,0,0,0,.838-1.262q.48-.813,1.063-1.964t1.216-2.545q.633-1.392,1.3-3t1.319-3.326q-1.207,1.5-2.27,3.036t-1.912,3.055a27.453,27.453,0,0,0-1.451,3.016,16.61,16.61,0,0,0-.89,2.9.512.512,0,0,0,.032.411A.257.257,0,0,0,10278.729,4487.55Zm10.837-10.982q-1.087,2.726-2.321,5.28a40.83,40.83,0,0,1-2.587,4.619,30.148,30.148,0,0,0,4.335-.671,17.523,17.523,0,0,0,3.618-1.252,11.323,11.323,0,0,0,2.835-1.923,9.589,9.589,0,0,0,1.991-2.685,7.32,7.32,0,0,0-.889-.4,10.541,10.541,0,0,0-1.012-.32q-.533-.139-1.074-.25t-1.054-.21c-.792-.133-1.607-.241-2.452-.32-.192-.027-.412-.227-.665-.6A10.859,10.859,0,0,1,10289.566,4476.568Zm3.188-9.518q-.347,1.241-.767,2.594t-.91,2.8a40.436,40.436,0,0,1,3.957-2.766q2.117-1.3,4.2-2.655a43.334,43.334,0,0,0,3.946-2.886,16.753,16.753,0,0,0,3.188-3.477.333.333,0,0,0,.072-.24.61.61,0,0,0-.093-.271.731.731,0,0,0-.216-.221.556.556,0,0,0-.315-.091,7.951,7.951,0,0,0-2.629.532,21.2,21.2,0,0,0-3.179,1.483,37.789,37.789,0,0,0-3.546,2.284Q10294.615,4465.466,10292.755,4467.05Z" fill="#fff"/>
        <path id="Path_262" data-name="Path 262" d="M10306.25,4485.906q0,.6.45.6a2.157,2.157,0,0,0,1.247-.732,14.323,14.323,0,0,0,1.615-1.852,3.04,3.04,0,0,1-.051-.392c-.008-.114-.01-.217-.01-.311a5.691,5.691,0,0,1,.093-.953,4.231,4.231,0,0,1,.459-1.252,7.439,7.439,0,0,1,.593-1.061q.286-.461.7-.993a8.35,8.35,0,0,1,.9-.992l.123-.121c.136.161.316.379.542.651s.45.555.674.841.422.552.595.792a3.649,3.649,0,0,1,.315.5,4.994,4.994,0,0,1-.315,1.724,9.148,9.148,0,0,1-.851,1.7,5.858,5.858,0,0,0,2.28-.612,8.323,8.323,0,0,0,2.2-1.733c.123.121.284.284.48.491s.359.384.48.531a11.941,11.941,0,0,1-1.687,1.463,8.494,8.494,0,0,1-1.656.922,8.1,8.1,0,0,1-1.686.491,10.293,10.293,0,0,1-1.759.151,12.976,12.976,0,0,1-1.492,1.322,12.372,12.372,0,0,1-1.625,1.042,8.9,8.9,0,0,1-1.647.681,5.5,5.5,0,0,1-1.555.242,2.626,2.626,0,0,1-1.267-.362,5.316,5.316,0,0,1-1.186-.892,5.449,5.449,0,0,1-.88-1.132,2.194,2.194,0,0,1-.348-1.063,11.186,11.186,0,0,1,.42-3.025,9.6,9.6,0,0,1,1.308-2.816,9.368,9.368,0,0,1,2.27-2.313,10.062,10.062,0,0,1,3.281-1.523.534.534,0,0,1,.216-.059,1.983,1.983,0,0,1,.255-.021,1.1,1.1,0,0,1,.6.21,4.293,4.293,0,0,1,.593.471,3.9,3.9,0,0,1,.461.51.842.842,0,0,1,.183.331.723.723,0,0,1-.307.25,5.769,5.769,0,0,0-.714.512,9.881,9.881,0,0,0-1.064,1.031,15.117,15.117,0,0,0-1.349,1.774,10.833,10.833,0,0,0-1.493,2.935A7.774,7.774,0,0,0,10306.25,4485.906Z" fill="#fff"/>
        <path id="Path_263" data-name="Path 263" d="M10323.3,4478.271q-.243.642-.49,1.3t-.491,1.364q1.291-1.444,2.219-2.354t1.575-1.434a5.814,5.814,0,0,1,1.042-.711,1.606,1.606,0,0,1,.625-.191,2.062,2.062,0,0,1,.8.262,7.888,7.888,0,0,1,1.074.64,6.93,6.93,0,0,1,.94.781,1.1,1.1,0,0,1,.4.7.849.849,0,0,1-.02.151c-.014.06-.035.136-.062.23-.108.333-.248.728-.418,1.182s-.352.926-.542,1.413-.383.976-.573,1.463-.361.945-.511,1.371-.273.8-.368,1.123a2.819,2.819,0,0,0-.144.7.107.107,0,0,0,.123.121,1.563,1.563,0,0,0,.675-.261,12.269,12.269,0,0,0,1.031-.681c.391-.281.795-.587,1.217-.922s.829-.664,1.218-.992.738-.625,1.052-.892.554-.467.717-.6a5.424,5.424,0,0,1,.45.461q.245.281.47.52-.448.442-1.124,1.073c-.449.421-.938.853-1.463,1.292s-1.069.882-1.635,1.324-1.114.834-1.646,1.181a11.606,11.606,0,0,1-1.493.842,2.906,2.906,0,0,1-1.164.322,2.014,2.014,0,0,1-.777-.211,5.437,5.437,0,0,1-.909-.521,3.555,3.555,0,0,1-.746-.691,1.188,1.188,0,0,1-.309-.741q.185-.822.5-1.864t.687-2.134q.366-1.092.767-2.165c.265-.714.521-1.374.766-1.974l-.04.04q-.391.461-1.114,1.213a24.936,24.936,0,0,0-1.646,1.923,31.149,31.149,0,0,0-1.942,2.826,30.652,30.652,0,0,0-2,3.917,3.2,3.2,0,0,1-.226.442.428.428,0,0,1-.389.161,2,2,0,0,1-.787-.191,5.572,5.572,0,0,1-.9-.5c-.307-.208-.615-.438-.921-.693a10.037,10.037,0,0,1-.828-.76,5.65,5.65,0,0,1,.113-.682c.074-.374.181-.844.316-1.413s.306-1.215.51-1.943.438-1.493.7-2.294.543-1.62.85-2.456.636-1.639.991-2.415q.86.4,1.911.982A11.188,11.188,0,0,1,10323.3,4478.271Z" fill="#fff"/>
        <path id="Path_264" data-name="Path 264" d="M10346.571,4485.726q0,.5.326.5a2.389,2.389,0,0,0,.931-.24,7.826,7.826,0,0,0,1.135-.631q.592-.392,1.207-.873t1.154-.94q.542-.461.972-.862c.287-.267.511-.481.676-.642.135.121.3.274.489.461s.36.36.512.52q-.533.524-1.207,1.164c-.45.428-.929.865-1.441,1.313s-1.042.882-1.594,1.3a17.761,17.761,0,0,1-1.647,1.122,10.309,10.309,0,0,1-1.594.791,4.078,4.078,0,0,1-1.473.3,1.809,1.809,0,0,1-.9-.331,5.869,5.869,0,0,1-1.021-.812,5.592,5.592,0,0,1-.828-1.012,1.821,1.821,0,0,1-.338-.952,15.787,15.787,0,0,1,.122-1.924q-.918.8-1.778,1.523t-1.728,1.353q-.87.631-1.779,1.163a12.42,12.42,0,0,1-1.932.911,1.476,1.476,0,0,1-.532.122,1.117,1.117,0,0,1-.531-.2,3.362,3.362,0,0,1-.633-.511,3.4,3.4,0,0,1-.532-.7,1.514,1.514,0,0,1-.226-.75,6.176,6.176,0,0,1,.317-1.833,10.9,10.9,0,0,1,.919-2.084,15.646,15.646,0,0,1,1.473-2.145,15.926,15.926,0,0,1,1.973-2.023,16.107,16.107,0,0,1,2.434-1.723,13.479,13.479,0,0,1,2.842-1.232,2.732,2.732,0,0,1,.736.251c.3.14.579.284.839.431q.735-2.065,1.687-4.139t2.024-3.987q1.071-1.914,2.238-3.588a30.313,30.313,0,0,1,2.332-2.965,14.133,14.133,0,0,1,2.3-2.094,5.443,5.443,0,0,1,2.156-.982,1.912,1.912,0,0,1,.953.291,5.658,5.658,0,0,1,.95.7,5.557,5.557,0,0,1,.767.853,2.509,2.509,0,0,1,.4.741,6.122,6.122,0,0,1-.47,2.144,18,18,0,0,1-1.3,2.636,34.227,34.227,0,0,1-1.963,2.956q-1.132,1.544-2.442,3.135t-2.751,3.177q-1.44,1.584-2.892,3.067a39.168,39.168,0,0,0-.972,3.9A17.886,17.886,0,0,0,10346.571,4485.726Zm-9.141-.682a4.147,4.147,0,0,0,2-.932,28.785,28.785,0,0,0,3.007-2.495q.183-.921.448-1.874c.178-.633.375-1.279.594-1.934a20.791,20.791,0,0,0-2.321,1.784,24.013,24.013,0,0,0-2.014,1.984,14.043,14.043,0,0,0-1.42,1.833,2.793,2.793,0,0,0-.542,1.292Q10337.187,4485.044,10337.431,4485.044Zm19.4-23.847a1.373,1.373,0,0,0-.85.5,10.594,10.594,0,0,0-1.123,1.392q-.624.893-1.319,2.114t-1.41,2.666q-.716,1.443-1.433,3.065t-1.348,3.288q1.532-1.844,2.912-3.7t2.423-3.517a24.507,24.507,0,0,0,1.657-3.046,5.953,5.953,0,0,0,.613-2.284c0-.082,0-.181-.011-.3S10356.9,4461.2,10356.835,4461.2Z" fill="#fff"/>
        <path id="Path_265" data-name="Path 265" d="M10354.3,4489.053a2.01,2.01,0,0,1-.775-.211,5.14,5.14,0,0,1-.9-.521,3.837,3.837,0,0,1-.736-.691,1.19,1.19,0,0,1-.307-.741q.205-.883.553-2.024c.233-.762.479-1.536.744-2.325s.546-1.559.841-2.314.558-1.427.8-2.014.447-1.062.623-1.424.295-.541.349-.541a2.078,2.078,0,0,1,.614.262,10.624,10.624,0,0,1,1.032.63,7.666,7.666,0,0,1,.972.781,1.115,1.115,0,0,1,.428.711.768.768,0,0,1-.02.151c-.014.06-.035.136-.061.23-.11.333-.249.728-.42,1.182s-.352.926-.542,1.413-.383.976-.573,1.463-.36.945-.511,1.371-.272.8-.368,1.123a2.865,2.865,0,0,0-.144.7.108.108,0,0,0,.123.121,1.57,1.57,0,0,0,.676-.261c.3-.173.644-.4,1.032-.681s.793-.587,1.216-.922.828-.664,1.218-.992.737-.625,1.052-.892.553-.467.716-.6q.185.181.439.461c.172.187.331.36.48.52q-.448.442-1.124,1.073t-1.462,1.292q-.787.663-1.636,1.324t-1.646,1.181a11.739,11.739,0,0,1-1.493.842A2.931,2.931,0,0,1,10354.3,4489.053Zm8.1-18.918a3.4,3.4,0,0,1-.153.391c-.088.206-.193.447-.316.721s-.262.562-.42.861-.31.579-.459.833a5.47,5.47,0,0,1-.43.632c-.136.167-.246.249-.326.249a2.944,2.944,0,0,1-.889-.221,8.977,8.977,0,0,1-1-.45,7.114,7.114,0,0,1-.818-.491c-.226-.16-.337-.274-.337-.34a3.371,3.371,0,0,1,.245-1.093,10.89,10.89,0,0,1,.573-1.3,8.351,8.351,0,0,1,.663-1.091c.227-.308.4-.462.522-.462a2.356,2.356,0,0,1,.9.232,8.781,8.781,0,0,1,1.031.53,7.276,7.276,0,0,1,.859.592C10362.277,4469.918,10362.4,4470.054,10362.4,4470.135Z" fill="#fff"/>
      </g>
      <g id="Group_36" data-name="Group 36">
        <g id="Group_35" data-name="Group 35">
          <path id="Path_266" data-name="Path 266" d="M10289.5,4495.437h-1.937v5.231h-1.069v-5.231h-1.919v-.853h4.925Z" fill="#00c7c0"/>
          <path id="Path_267" data-name="Path 267" d="M10305.837,4500.668h-1.074v-2.7h-2.776v2.7h-1.077v-6.084h1.077v2.533h2.776v-2.533h1.074Z" fill="#00c7c0"/>
          <path id="Path_268" data-name="Path 268" d="M10321.531,4497.953h-2.551v1.863h2.98v.853h-4.059v-6.084h4.029v.853h-2.951v1.68h2.551Z" fill="#00c7c0"/>
          <path id="Path_269" data-name="Path 269" d="M10335.9,4494.584l1.792,4.664,1.785-4.664h1.395v6.084h-1.074v-2l.108-2.684-1.834,4.688h-.773l-1.828-4.684.106,2.679v2h-1.074v-6.084Z" fill="#00c7c0"/>
          <path id="Path_270" data-name="Path 270" d="M10354.849,4497.953h-2.551v1.863h2.98v.853h-4.058v-6.084h4.028v.853h-2.951v1.68h2.551Z" fill="#00c7c0"/>
        </g>
      </g>
    </g>
  </g>
</svg>
