<svg xmlns="http://www.w3.org/2000/svg" width="76.569" height="57.202" viewBox="0 0 76.569 57.202">
  <path id="Composite_Path" data-name="Composite Path" d="M997.681,1325.716a6.743,6.743,0,0,0-12.384.205l-23.214-8.769a8.722,8.722,0,0,0-7.535-10.646l.171-8.89a6.743,6.743,0,1,0-2-.038l-.171,8.922a8.752,8.752,0,0,0-6.96,12.293,8.573,8.573,0,0,0,.443.847l-12.863,10.15a6.741,6.741,0,1,0,1.443,2.052c-.071-.156-.154-.306-.234-.456l12.867-10.153a8.741,8.741,0,0,0,14.176-2.193l23.391,8.835a6.748,6.748,0,1,0,12.868-2.159Zm-41.337-4.374a6.749,6.749,0,1,1,3.373-8.929A6.755,6.755,0,0,1,956.344,1321.342Z" transform="translate(-921.712 -1284.17)" fill="#ffc400"/>
</svg>
